<svg width="50" height="50" viewBox="0 0 50 50" fill="none" xmlns="http://www.w3.org/2000/svg">
<path d="M25 13.5416V38.5416" stroke="white" stroke-linecap="round"/>
<path d="M42.7085 13.5416V38.5416" stroke="white" stroke-linecap="round"/>
<path d="M7.2915 13.5416V38.5416" stroke="white" stroke-linecap="round"/>
<path d="M42.7083 38.5417C42.7083 38.5417 40.625 34.375 33.3333 34.375C26.0417 34.375 25 38.5417 25 38.5417" stroke="white" stroke-linecap="round"/>
<path d="M7.29167 38.5417C7.29167 38.5417 9.375 34.375 16.6667 34.375C23.9583 34.375 25 38.5417 25 38.5417" stroke="white" stroke-linecap="round"/>
<path d="M42.7083 13.5417C42.7083 13.5417 40.625 9.375 33.3333 9.375C26.0417 9.375 25 13.5417 25 13.5417" stroke="white" stroke-linecap="round"/>
<path d="M7.29167 13.5417C7.29167 13.5417 9.375 9.375 16.6667 9.375C23.9583 9.375 25 13.5417 25 13.5417" stroke="white" stroke-linecap="round"/>
</svg>
