<svg width="1648" height="25" viewBox="0 0 1648 25" fill="none" xmlns="http://www.w3.org/2000/svg">
<path d="M874.21 16.706H871.312L870.61 20H868.378L871.33 7.40002H874.12L877.306 20H874.948L874.21 16.706ZM871.78 14.6H873.742L872.716 10.712L871.78 14.6Z" fill="white"/>
<path d="M885.538 17.174C885.538 17.786 885.412 18.302 885.16 18.722C884.908 19.142 884.566 19.46 884.134 19.676C883.75 19.868 883.36 20.006 882.964 20.09C882.58 20.174 882.166 20.216 881.722 20.216C881.278 20.216 880.666 20.174 879.886 20.09L878.896 20V7.40002H880.876V11C881.404 10.88 881.884 10.82 882.316 10.82C882.928 10.82 883.492 10.94 884.008 11.18C885.028 11.648 885.538 12.512 885.538 13.772V17.174ZM883.576 14.33C883.576 13.79 883.426 13.406 883.126 13.178C882.826 12.938 882.46 12.818 882.028 12.818C881.788 12.818 881.56 12.848 881.344 12.908C881.128 12.968 880.972 13.04 880.876 13.124V18.272C881.08 18.332 881.326 18.362 881.614 18.362C882.118 18.362 882.568 18.272 882.964 18.092C883.372 17.9 883.576 17.606 883.576 17.21V14.33Z" fill="white"/>
<path d="M894.364 16.688C894.364 17.696 894.088 18.53 893.536 19.19C892.984 19.85 892.15 20.18 891.034 20.18C889.918 20.18 889.072 19.85 888.496 19.19C887.932 18.518 887.65 17.684 887.65 16.688V14.312C887.65 13.172 887.938 12.302 888.514 11.702C889.102 11.09 889.942 10.784 891.034 10.784C892.078 10.784 892.894 11.102 893.482 11.738C894.07 12.362 894.364 13.22 894.364 14.312V16.688ZM892.402 14.312C892.402 13.676 892.27 13.262 892.006 13.07C891.742 12.878 891.418 12.782 891.034 12.782C890.098 12.782 889.63 13.292 889.63 14.312V16.868C889.63 17.348 889.762 17.696 890.026 17.912C890.29 18.128 890.626 18.236 891.034 18.236C891.43 18.236 891.754 18.122 892.006 17.894C892.27 17.666 892.402 17.324 892.402 16.868V14.312Z" fill="white"/>
<path d="M900.452 19.892C900.416 19.904 900.278 19.958 900.038 20.054C899.798 20.15 899.486 20.198 899.102 20.198C896.846 20.198 895.718 19.1 895.718 16.904V10.982H897.698V16.616C897.698 17.168 897.794 17.576 897.986 17.84C898.19 18.104 898.562 18.236 899.102 18.236C899.642 18.236 900.002 18.092 900.182 17.804C900.362 17.504 900.452 17.084 900.452 16.544V10.982H902.432V20H900.578L900.452 19.892Z" fill="white"/>
<path d="M906.649 20.234C904.825 20.198 903.913 19.328 903.913 17.624V7.40002H905.929V10.982H907.639L907.207 12.836H905.929V17.624C905.929 18.032 906.043 18.308 906.271 18.452C906.499 18.584 906.823 18.65 907.243 18.65L906.649 20.234Z" fill="white"/>
<path d="M918.452 19.892C918.416 19.904 918.278 19.958 918.038 20.054C917.798 20.15 917.486 20.198 917.102 20.198C914.846 20.198 913.718 19.1 913.718 16.904V10.982H915.698V16.616C915.698 17.168 915.794 17.576 915.986 17.84C916.19 18.104 916.562 18.236 917.102 18.236C917.642 18.236 918.002 18.092 918.182 17.804C918.362 17.504 918.452 17.084 918.452 16.544V10.982H920.432V20H918.578L918.452 19.892Z" fill="white"/>
<path d="M923.749 17.516C923.749 17.732 923.857 17.936 924.073 18.128C924.301 18.32 924.643 18.416 925.099 18.416C925.495 18.416 925.801 18.32 926.017 18.128C926.233 17.924 926.341 17.69 926.341 17.426C926.341 17.054 926.203 16.778 925.927 16.598C925.663 16.418 925.231 16.22 924.631 16.004C924.115 15.836 923.689 15.668 923.353 15.5C923.017 15.332 922.717 15.08 922.453 14.744C922.189 14.408 922.033 13.97 921.985 13.43C921.949 13.022 922.027 12.614 922.219 12.206C922.423 11.786 922.759 11.444 923.227 11.18C923.707 10.904 924.319 10.766 925.063 10.766C925.447 10.766 925.783 10.808 926.071 10.892C926.371 10.964 926.605 11.042 926.773 11.126C926.941 11.21 927.043 11.264 927.079 11.288L926.503 13.124C926.479 13.1 926.413 13.058 926.305 12.998C926.209 12.926 926.053 12.86 925.837 12.8C925.621 12.74 925.363 12.71 925.063 12.71C924.415 12.71 924.091 12.89 924.091 13.25C924.091 13.322 924.103 13.394 924.127 13.466C924.163 13.634 924.289 13.778 924.505 13.898C924.721 14.006 925.039 14.138 925.459 14.294C926.047 14.51 926.539 14.726 926.935 14.942C927.343 15.146 927.691 15.458 927.979 15.878C928.279 16.286 928.429 16.814 928.429 17.462C928.429 17.954 928.309 18.416 928.069 18.848C927.829 19.268 927.457 19.61 926.953 19.874C926.461 20.138 925.843 20.27 925.099 20.27C924.415 20.27 923.821 20.156 923.317 19.928C922.825 19.688 922.447 19.376 922.183 18.992C921.931 18.608 921.793 18.182 921.769 17.714L923.749 17.516Z" fill="white"/>
<path d="M739.404 7.40002H741.384V18.182H745.902V20H739.404V7.40002Z" fill="white"/>
<path d="M748.556 17.318C748.556 17.654 748.646 17.918 748.826 18.11C749.018 18.29 749.294 18.38 749.654 18.38C750.206 18.38 750.944 18.14 751.868 17.66L752.588 19.37C752.156 19.646 751.664 19.856 751.112 20C750.56 20.144 750.008 20.216 749.456 20.216C748.568 20.216 747.86 20 747.332 19.568C746.816 19.124 746.558 18.464 746.558 17.588V13.898C746.558 12.926 746.858 12.17 747.458 11.63C748.07 11.09 748.874 10.82 749.87 10.82C750.866 10.82 751.64 11.09 752.192 11.63C752.756 12.158 753.038 12.896 753.038 13.844V16.58L748.556 16.814V17.318ZM751.04 13.88C751.04 13.52 750.926 13.244 750.698 13.052C750.47 12.86 750.188 12.764 749.852 12.764C749.396 12.764 749.066 12.884 748.862 13.124C748.658 13.364 748.556 13.628 748.556 13.916V14.996L751.04 14.834V13.88Z" fill="white"/>
<path d="M761.329 20C760.033 20.132 759.097 20.198 758.521 20.198C757.261 20.198 756.259 19.964 755.515 19.496C754.771 19.028 754.399 18.182 754.399 16.958V15.464C754.399 14.276 754.813 13.478 755.641 13.07C756.037 12.878 756.487 12.782 756.991 12.782C757.435 12.782 757.873 12.842 758.305 12.962C758.737 13.082 759.085 13.214 759.349 13.358C759.349 12.914 759.169 12.614 758.809 12.458C758.449 12.29 757.987 12.206 757.423 12.206L757.585 10.838C758.737 10.838 759.583 11.024 760.123 11.396C760.675 11.756 761.011 12.188 761.131 12.692C761.263 13.196 761.329 13.844 761.329 14.636V20ZM759.349 15.464C759.133 15.308 758.827 15.164 758.431 15.032C758.047 14.888 757.693 14.816 757.369 14.816C757.081 14.816 756.847 14.888 756.667 15.032C756.487 15.176 756.397 15.404 756.397 15.716V16.706C756.397 17.798 757.039 18.344 758.323 18.344C758.695 18.344 759.037 18.314 759.349 18.254V15.464Z" fill="white"/>
<path d="M763.381 13.772C763.381 12.512 763.891 11.648 764.911 11.18C765.403 10.94 765.979 10.82 766.639 10.82C767.203 10.82 767.677 10.892 768.061 11.036V7.40002H770.023V20L769.033 20.09C768.253 20.174 767.641 20.216 767.197 20.216C766.753 20.216 766.333 20.174 765.937 20.09C765.553 20.006 765.169 19.868 764.785 19.676C764.353 19.46 764.011 19.142 763.759 18.722C763.507 18.302 763.381 17.786 763.381 17.174V13.772ZM768.061 13.124C767.629 12.92 767.227 12.818 766.855 12.818C766.423 12.818 766.063 12.956 765.775 13.232C765.487 13.508 765.343 13.928 765.343 14.492V17.3C765.343 17.612 765.511 17.87 765.847 18.074C766.183 18.278 766.609 18.38 767.125 18.38C767.449 18.38 767.761 18.338 768.061 18.254V13.124Z" fill="white"/>
<path d="M773.71 17.318C773.71 17.654 773.8 17.918 773.98 18.11C774.172 18.29 774.448 18.38 774.808 18.38C775.36 18.38 776.098 18.14 777.022 17.66L777.742 19.37C777.31 19.646 776.818 19.856 776.266 20C775.714 20.144 775.162 20.216 774.61 20.216C773.722 20.216 773.014 20 772.486 19.568C771.97 19.124 771.712 18.464 771.712 17.588V13.898C771.712 12.926 772.012 12.17 772.612 11.63C773.224 11.09 774.028 10.82 775.024 10.82C776.02 10.82 776.794 11.09 777.346 11.63C777.91 12.158 778.192 12.896 778.192 13.844V16.58L773.71 16.814V17.318ZM776.194 13.88C776.194 13.52 776.08 13.244 775.852 13.052C775.624 12.86 775.342 12.764 775.006 12.764C774.55 12.764 774.22 12.884 774.016 13.124C773.812 13.364 773.71 13.628 773.71 13.916V14.996L776.194 14.834V13.88Z" fill="white"/>
<path d="M779.985 10.982H781.821L781.965 11.054C782.457 10.886 782.919 10.802 783.351 10.802C783.651 10.802 784.089 10.862 784.665 10.982L785.025 11.054L784.557 12.98C784.221 12.812 783.891 12.728 783.567 12.728C783.123 12.728 782.745 12.866 782.433 13.142C782.121 13.406 781.965 13.76 781.965 14.204V20H779.985V10.982Z" fill="white"/>
<path d="M787.129 7.40002H790.801C791.797 7.40002 792.625 7.67602 793.285 8.22802C793.945 8.78002 794.275 9.56603 794.275 10.586C794.275 11.066 794.197 11.522 794.041 11.954C793.885 12.386 793.567 12.764 793.087 13.088L793.069 13.124V13.142C793.597 13.382 794.035 13.766 794.383 14.294C794.743 14.822 794.923 15.494 794.923 16.31C794.923 16.934 794.797 17.528 794.545 18.092C794.293 18.644 793.879 19.1 793.303 19.46C792.727 19.82 791.983 20 791.071 20H787.129V7.40002ZM789.973 12.566C790.657 12.566 791.161 12.44 791.485 12.188C791.809 11.936 791.971 11.504 791.971 10.892C791.971 10.328 791.821 9.93802 791.521 9.72202C791.221 9.49402 790.765 9.38002 790.153 9.38002H789.109V12.566H789.973ZM790.207 18.182C790.759 18.182 791.203 18.14 791.539 18.056C791.887 17.96 792.157 17.774 792.349 17.498C792.553 17.222 792.655 16.814 792.655 16.274C792.655 15.59 792.445 15.122 792.025 14.87C791.605 14.606 791.053 14.474 790.369 14.474H789.109V18.182H790.207Z" fill="white"/>
<path d="M803.739 16.688C803.739 17.696 803.463 18.53 802.911 19.19C802.359 19.85 801.525 20.18 800.409 20.18C799.293 20.18 798.447 19.85 797.871 19.19C797.307 18.518 797.025 17.684 797.025 16.688V14.312C797.025 13.172 797.313 12.302 797.889 11.702C798.477 11.09 799.317 10.784 800.409 10.784C801.453 10.784 802.269 11.102 802.857 11.738C803.445 12.362 803.739 13.22 803.739 14.312V16.688ZM801.777 14.312C801.777 13.676 801.645 13.262 801.381 13.07C801.117 12.878 800.793 12.782 800.409 12.782C799.473 12.782 799.005 13.292 799.005 14.312V16.868C799.005 17.348 799.137 17.696 799.401 17.912C799.665 18.128 800.001 18.236 800.409 18.236C800.805 18.236 801.129 18.122 801.381 17.894C801.645 17.666 801.777 17.324 801.777 16.868V14.312Z" fill="white"/>
<path d="M812.042 20C810.746 20.132 809.81 20.198 809.234 20.198C807.974 20.198 806.972 19.964 806.228 19.496C805.484 19.028 805.112 18.182 805.112 16.958V15.464C805.112 14.276 805.526 13.478 806.354 13.07C806.75 12.878 807.2 12.782 807.704 12.782C808.148 12.782 808.586 12.842 809.018 12.962C809.45 13.082 809.798 13.214 810.062 13.358C810.062 12.914 809.882 12.614 809.522 12.458C809.162 12.29 808.7 12.206 808.136 12.206L808.298 10.838C809.45 10.838 810.296 11.024 810.836 11.396C811.388 11.756 811.724 12.188 811.844 12.692C811.976 13.196 812.042 13.844 812.042 14.636V20ZM810.062 15.464C809.846 15.308 809.54 15.164 809.144 15.032C808.76 14.888 808.406 14.816 808.082 14.816C807.794 14.816 807.56 14.888 807.38 15.032C807.2 15.176 807.11 15.404 807.11 15.716V16.706C807.11 17.798 807.752 18.344 809.036 18.344C809.408 18.344 809.75 18.314 810.062 18.254V15.464Z" fill="white"/>
<path d="M813.788 10.982H815.624L815.768 11.054C816.26 10.886 816.722 10.802 817.154 10.802C817.454 10.802 817.892 10.862 818.468 10.982L818.828 11.054L818.36 12.98C818.024 12.812 817.694 12.728 817.37 12.728C816.926 12.728 816.548 12.866 816.236 13.142C815.924 13.406 815.768 13.76 815.768 14.204V20H813.788V10.982Z" fill="white"/>
<path d="M820.07 13.772C820.07 12.512 820.58 11.648 821.6 11.18C822.092 10.94 822.668 10.82 823.328 10.82C823.892 10.82 824.366 10.892 824.75 11.036V7.40002H826.712V20L825.722 20.09C824.942 20.174 824.33 20.216 823.886 20.216C823.442 20.216 823.022 20.174 822.626 20.09C822.242 20.006 821.858 19.868 821.474 19.676C821.042 19.46 820.7 19.142 820.448 18.722C820.196 18.302 820.07 17.786 820.07 17.174V13.772ZM824.75 13.124C824.318 12.92 823.916 12.818 823.544 12.818C823.112 12.818 822.752 12.956 822.464 13.232C822.176 13.508 822.032 13.928 822.032 14.492V17.3C822.032 17.612 822.2 17.87 822.536 18.074C822.872 18.278 823.298 18.38 823.814 18.38C824.138 18.38 824.45 18.338 824.75 18.254V13.124Z" fill="white"/>
<path d="M614.012 14.49H611.384V18H609.404V5.40002H613.67C614.462 5.40002 615.122 5.59802 615.65 5.99402C616.178 6.37802 616.568 6.89402 616.82 7.54202C617.084 8.19002 617.216 8.90403 617.216 9.68403C617.216 10.272 617.192 10.782 617.144 11.214C617.096 11.646 616.97 12.096 616.766 12.564C616.574 13.032 616.262 13.452 615.83 13.824L617.234 18H615.218L614.012 14.49ZM613.202 12.6C613.79 12.6 614.222 12.45 614.498 12.15C614.786 11.838 614.96 11.484 615.02 11.088C615.092 10.692 615.128 10.224 615.128 9.68403C615.128 9.04802 615.038 8.56802 614.858 8.24402C614.678 7.90802 614.426 7.68602 614.102 7.57802C613.778 7.45802 613.358 7.39802 612.842 7.39802H611.384V12.6H613.202Z" fill="white"/>
<path d="M620.788 15.318C620.788 15.654 620.878 15.918 621.058 16.11C621.25 16.29 621.526 16.38 621.886 16.38C622.438 16.38 623.176 16.14 624.1 15.66L624.82 17.37C624.388 17.646 623.896 17.856 623.344 18C622.792 18.144 622.24 18.216 621.688 18.216C620.8 18.216 620.092 18 619.564 17.568C619.048 17.124 618.79 16.464 618.79 15.588V11.898C618.79 10.926 619.09 10.17 619.69 9.63002C620.302 9.09002 621.106 8.82002 622.102 8.82002C623.098 8.82002 623.872 9.09002 624.424 9.63002C624.988 10.158 625.27 10.896 625.27 11.844V14.58L620.788 14.814V15.318ZM623.272 11.88C623.272 11.52 623.158 11.244 622.93 11.052C622.702 10.86 622.42 10.764 622.084 10.764C621.628 10.764 621.298 10.884 621.094 11.124C620.89 11.364 620.788 11.628 620.788 11.916V12.996L623.272 12.834V11.88Z" fill="white"/>
<path d="M628.593 15.516C628.593 15.732 628.701 15.936 628.917 16.128C629.145 16.32 629.487 16.416 629.943 16.416C630.339 16.416 630.645 16.32 630.861 16.128C631.077 15.924 631.185 15.69 631.185 15.426C631.185 15.054 631.047 14.778 630.771 14.598C630.507 14.418 630.075 14.22 629.475 14.004C628.959 13.836 628.533 13.668 628.197 13.5C627.861 13.332 627.561 13.08 627.297 12.744C627.033 12.408 626.877 11.97 626.829 11.43C626.793 11.022 626.871 10.614 627.063 10.206C627.267 9.78602 627.603 9.44403 628.071 9.18003C628.551 8.90403 629.163 8.76603 629.907 8.76603C630.291 8.76603 630.627 8.80802 630.915 8.89202C631.215 8.96403 631.449 9.04203 631.617 9.12602C631.785 9.21002 631.887 9.26402 631.923 9.28802L631.347 11.124C631.323 11.1 631.257 11.058 631.149 10.998C631.053 10.926 630.897 10.86 630.681 10.8C630.465 10.74 630.207 10.71 629.907 10.71C629.259 10.71 628.935 10.89 628.935 11.25C628.935 11.322 628.947 11.394 628.971 11.466C629.007 11.634 629.133 11.778 629.349 11.898C629.565 12.006 629.883 12.138 630.303 12.294C630.891 12.51 631.383 12.726 631.779 12.942C632.187 13.146 632.535 13.458 632.823 13.878C633.123 14.286 633.273 14.814 633.273 15.462C633.273 15.954 633.153 16.416 632.913 16.848C632.673 17.268 632.301 17.61 631.797 17.874C631.305 18.138 630.687 18.27 629.943 18.27C629.259 18.27 628.665 18.156 628.161 17.928C627.669 17.688 627.291 17.376 627.027 16.992C626.775 16.608 626.637 16.182 626.613 15.714L628.593 15.516Z" fill="white"/>
<path d="M641.835 14.688C641.835 15.696 641.559 16.53 641.007 17.19C640.455 17.85 639.621 18.18 638.505 18.18C637.389 18.18 636.543 17.85 635.967 17.19C635.403 16.518 635.121 15.684 635.121 14.688V12.312C635.121 11.172 635.409 10.302 635.985 9.70202C636.573 9.09002 637.413 8.78402 638.505 8.78402C639.549 8.78402 640.365 9.10203 640.953 9.73803C641.541 10.362 641.835 11.22 641.835 12.312V14.688ZM639.873 12.312C639.873 11.676 639.741 11.262 639.477 11.07C639.213 10.878 638.889 10.782 638.505 10.782C637.569 10.782 637.101 11.292 637.101 12.312V14.868C637.101 15.348 637.233 15.696 637.497 15.912C637.761 16.128 638.097 16.236 638.505 16.236C638.901 16.236 639.225 16.122 639.477 15.894C639.741 15.666 639.873 15.324 639.873 14.868V12.312Z" fill="white"/>
<path d="M647.923 17.892C647.887 17.904 647.749 17.958 647.509 18.054C647.269 18.15 646.957 18.198 646.573 18.198C644.317 18.198 643.189 17.1 643.189 14.904V8.98202H645.169V14.616C645.169 15.168 645.265 15.576 645.457 15.84C645.661 16.104 646.033 16.236 646.573 16.236C647.113 16.236 647.473 16.092 647.653 15.804C647.833 15.504 647.923 15.084 647.923 14.544V8.98202H649.903V18H648.049L647.923 17.892Z" fill="white"/>
<path d="M651.69 8.98202H653.526L653.67 9.05403C654.162 8.88602 654.624 8.80202 655.056 8.80202C655.356 8.80202 655.794 8.86202 656.37 8.98202L656.73 9.05403L656.262 10.98C655.926 10.812 655.596 10.728 655.272 10.728C654.828 10.728 654.45 10.866 654.138 11.142C653.826 11.406 653.67 11.76 653.67 12.204V18H651.69V8.98202Z" fill="white"/>
<path d="M662.907 17.892C662.163 18.084 661.443 18.18 660.747 18.18C660.099 18.18 659.559 18.108 659.127 17.964C658.419 17.724 657.903 17.358 657.579 16.866C657.267 16.362 657.111 15.66 657.111 14.76V12.456C657.111 11.268 657.423 10.368 658.047 9.75602C658.671 9.13202 659.475 8.82002 660.459 8.82002C661.239 8.82002 662.043 9.01202 662.871 9.39603L662.331 11.106C661.755 10.878 661.239 10.764 660.783 10.764C660.243 10.764 659.823 10.914 659.523 11.214C659.235 11.514 659.091 11.892 659.091 12.348V14.958C659.091 15.414 659.253 15.738 659.577 15.93C659.901 16.122 660.315 16.218 660.819 16.218C661.107 16.218 661.395 16.188 661.683 16.128C661.971 16.068 662.199 16.008 662.367 15.948L662.907 17.892Z" fill="white"/>
<path d="M665.982 15.318C665.982 15.654 666.072 15.918 666.252 16.11C666.444 16.29 666.72 16.38 667.08 16.38C667.632 16.38 668.37 16.14 669.294 15.66L670.014 17.37C669.582 17.646 669.09 17.856 668.538 18C667.986 18.144 667.434 18.216 666.882 18.216C665.994 18.216 665.286 18 664.758 17.568C664.242 17.124 663.984 16.464 663.984 15.588V11.898C663.984 10.926 664.284 10.17 664.884 9.63002C665.496 9.09002 666.3 8.82002 667.296 8.82002C668.292 8.82002 669.066 9.09002 669.618 9.63002C670.182 10.158 670.464 10.896 670.464 11.844V14.58L665.982 14.814V15.318ZM668.466 11.88C668.466 11.52 668.352 11.244 668.124 11.052C667.896 10.86 667.614 10.764 667.278 10.764C666.822 10.764 666.492 10.884 666.288 11.124C666.084 11.364 665.982 11.628 665.982 11.916V12.996L668.466 12.834V11.88Z" fill="white"/>
<path d="M673.786 15.516C673.786 15.732 673.895 15.936 674.111 16.128C674.339 16.32 674.68 16.416 675.136 16.416C675.532 16.416 675.839 16.32 676.055 16.128C676.271 15.924 676.379 15.69 676.379 15.426C676.379 15.054 676.241 14.778 675.965 14.598C675.701 14.418 675.269 14.22 674.669 14.004C674.153 13.836 673.727 13.668 673.391 13.5C673.055 13.332 672.755 13.08 672.491 12.744C672.227 12.408 672.07 11.97 672.022 11.43C671.986 11.022 672.065 10.614 672.257 10.206C672.461 9.78602 672.797 9.44403 673.265 9.18003C673.745 8.90403 674.357 8.76603 675.101 8.76603C675.485 8.76603 675.82 8.80802 676.108 8.89202C676.408 8.96403 676.643 9.04203 676.811 9.12602C676.979 9.21002 677.081 9.26402 677.117 9.28802L676.541 11.124C676.517 11.1 676.45 11.058 676.342 10.998C676.246 10.926 676.091 10.86 675.875 10.8C675.659 10.74 675.401 10.71 675.101 10.71C674.453 10.71 674.129 10.89 674.129 11.25C674.129 11.322 674.14 11.394 674.164 11.466C674.2 11.634 674.327 11.778 674.543 11.898C674.759 12.006 675.076 12.138 675.496 12.294C676.084 12.51 676.577 12.726 676.973 12.942C677.381 13.146 677.729 13.458 678.017 13.878C678.317 14.286 678.466 14.814 678.466 15.462C678.466 15.954 678.346 16.416 678.106 16.848C677.866 17.268 677.495 17.61 676.991 17.874C676.499 18.138 675.88 18.27 675.136 18.27C674.452 18.27 673.858 18.156 673.354 17.928C672.862 17.688 672.484 17.376 672.22 16.992C671.968 16.608 671.83 16.182 671.806 15.714L673.786 15.516Z" fill="white"/>
<path d="M1522.57 11.71L1520.58 18H1519.15L1517.2 11.727V18H1515.33V6.09996H1517.2L1519.87 13.971L1522.57 6.09996H1524.44V18H1522.57V11.71Z" fill="white"/>
<path d="M1529.8 20.091C1530.09 20.091 1530.35 20.0003 1530.58 19.819C1530.82 19.6376 1530.94 19.3486 1530.94 18.952V17.966C1530.9 17.9773 1530.77 18.017 1530.55 18.085C1530.32 18.1643 1529.99 18.204 1529.54 18.204C1528.55 18.204 1527.78 17.9376 1527.23 17.405C1526.7 16.861 1526.43 16.062 1526.43 15.008V9.48296H1528.3V14.498C1528.3 15.212 1528.39 15.6993 1528.57 15.96C1528.77 16.2093 1529.09 16.334 1529.54 16.334C1529.87 16.334 1530.13 16.2886 1530.33 16.198C1530.53 16.096 1530.68 15.9146 1530.78 15.654C1530.89 15.382 1530.94 14.9966 1530.94 14.498V11.829C1530.94 11.4436 1531.03 11.064 1531.21 10.69C1531.4 10.316 1531.66 10.0043 1531.99 9.75496C1532.33 9.50563 1532.71 9.36396 1533.13 9.32996L1533.83 10.86C1533.5 10.9393 1533.24 11.098 1533.06 11.336C1532.89 11.5626 1532.81 11.8176 1532.81 12.101V19.037C1532.81 19.7736 1532.63 20.3516 1532.28 20.771C1531.94 21.2016 1531.36 21.468 1530.53 21.57L1529.8 20.091Z" fill="white"/>
<path d="M1540.46 6.09996H1544.34C1545.53 6.09996 1546.41 6.4853 1546.97 7.25596C1547.55 8.0153 1547.84 8.97296 1547.84 10.129C1547.84 13.1663 1546.72 14.685 1544.49 14.685H1542.33V18H1540.46V6.09996ZM1543.93 12.9C1544.57 12.9 1545.05 12.7583 1545.34 12.475C1545.65 12.1916 1545.83 11.8743 1545.88 11.523C1545.94 11.1603 1545.97 10.707 1545.97 10.163C1545.97 9.5623 1545.88 9.1033 1545.71 8.78596C1545.56 8.4573 1545.32 8.24196 1545.02 8.13996C1544.72 8.02663 1544.34 7.96996 1543.86 7.96996H1542.33V12.9H1543.93Z" fill="white"/>
<path d="M1549.54 9.48296H1551.27L1551.41 9.55096C1551.87 9.3923 1552.31 9.31296 1552.71 9.31296C1553 9.31296 1553.41 9.36963 1553.96 9.48296L1554.3 9.55096L1553.85 11.37C1553.54 11.2113 1553.22 11.132 1552.92 11.132C1552.5 11.132 1552.14 11.2623 1551.85 11.523C1551.55 11.7723 1551.41 12.1066 1551.41 12.526V18H1549.54V9.48296Z" fill="white"/>
<path d="M1561.74 14.872C1561.74 15.824 1561.48 16.6116 1560.96 17.235C1560.44 17.8583 1559.65 18.17 1558.6 18.17C1557.54 18.17 1556.75 17.8583 1556.2 17.235C1555.67 16.6003 1555.4 15.8126 1555.4 14.872V12.628C1555.4 11.5513 1555.67 10.7296 1556.22 10.163C1556.77 9.58496 1557.57 9.29596 1558.6 9.29596C1559.58 9.29596 1560.36 9.5963 1560.91 10.197C1561.47 10.7863 1561.74 11.5966 1561.74 12.628V14.872ZM1559.89 12.628C1559.89 12.0273 1559.77 11.6363 1559.52 11.455C1559.27 11.2736 1558.96 11.183 1558.6 11.183C1557.71 11.183 1557.27 11.6646 1557.27 12.628V15.042C1557.27 15.4953 1557.4 15.824 1557.65 16.028C1557.9 16.232 1558.21 16.334 1558.6 16.334C1558.97 16.334 1559.28 16.2263 1559.52 16.011C1559.77 15.7956 1559.89 15.4726 1559.89 15.042V12.628Z" fill="white"/>
<path d="M1563.74 9.21096C1563.74 8.56496 1563.87 7.99263 1564.13 7.49396C1564.39 6.98396 1564.74 6.59296 1565.2 6.32096C1565.66 6.04896 1566.18 5.91296 1566.76 5.91296C1567.51 5.91296 1568.28 6.15663 1569.07 6.64396L1567.6 7.96996C1567.54 7.85663 1567.43 7.77163 1567.27 7.71496C1567.12 7.64696 1566.96 7.61296 1566.78 7.61296C1566.47 7.61296 1566.21 7.70363 1565.98 7.88496C1565.75 8.05496 1565.64 8.31563 1565.64 8.66696V9.48296H1567.12L1566.71 11.234H1565.64V18H1563.74V9.21096ZM1567.61 9.48296H1569.47V18H1567.61V9.48296Z" fill="white"/>
<path d="M1571.46 6.09996H1573.33V18H1571.46V6.09996Z" fill="white"/>
<path d="M1577.16 15.467C1577.16 15.7843 1577.25 16.0336 1577.42 16.215C1577.6 16.385 1577.86 16.47 1578.2 16.47C1578.72 16.47 1579.42 16.2433 1580.29 15.79L1580.97 17.405C1580.56 17.6656 1580.1 17.864 1579.57 18C1579.05 18.136 1578.53 18.204 1578.01 18.204C1577.17 18.204 1576.5 18 1576 17.592C1575.52 17.1726 1575.27 16.5493 1575.27 15.722V12.237C1575.27 11.319 1575.56 10.605 1576.12 10.095C1576.7 9.58496 1577.46 9.32996 1578.4 9.32996C1579.34 9.32996 1580.07 9.58496 1580.59 10.095C1581.13 10.5936 1581.39 11.2906 1581.39 12.186V14.77L1577.16 14.991V15.467ZM1579.51 12.22C1579.51 11.88 1579.4 11.6193 1579.18 11.438C1578.97 11.2566 1578.7 11.166 1578.38 11.166C1577.95 11.166 1577.64 11.2793 1577.45 11.506C1577.26 11.7326 1577.16 11.982 1577.16 12.254V13.274L1579.51 13.121V12.22Z" fill="white"/>
<path fill-rule="evenodd" clip-rule="evenodd" d="M1496 2C1490.48 2 1486 6.48 1486 12C1486 17.52 1490.48 22 1496 22C1501.52 22 1506 17.52 1506 12C1506 6.48 1501.52 2 1496 2ZM1491.07 18.28C1491.5 17.38 1494.12 16.5 1496 16.5C1497.88 16.5 1500.51 17.38 1500.93 18.28C1499.57 19.36 1497.86 20 1496 20C1494.14 20 1492.43 19.36 1491.07 18.28ZM1502.36 16.83C1500.93 15.09 1497.46 14.5 1496 14.5C1494.54 14.5 1491.07 15.09 1489.64 16.83C1488.62 15.49 1488 13.82 1488 12C1488 7.59 1491.59 4 1496 4C1500.41 4 1504 7.59 1504 12C1504 13.82 1503.38 15.49 1502.36 16.83V16.83ZM1496 6C1494.06 6 1492.5 7.56 1492.5 9.5C1492.5 11.44 1494.06 13 1496 13C1497.94 13 1499.5 11.44 1499.5 9.5C1499.5 7.56 1497.94 6 1496 6ZM1496 11C1495.17 11 1494.5 10.33 1494.5 9.5C1494.5 8.67 1495.17 8 1496 8C1496.83 8 1497.5 8.67 1497.5 9.5C1497.5 10.33 1496.83 11 1496 11Z" fill="white"/>
<mask id="mask0_863_350" style="mask-type:luminance" maskUnits="userSpaceOnUse" x="1486" y="2" width="20" height="20">
<path fill-rule="evenodd" clip-rule="evenodd" d="M1496 2C1490.48 2 1486 6.48 1486 12C1486 17.52 1490.48 22 1496 22C1501.52 22 1506 17.52 1506 12C1506 6.48 1501.52 2 1496 2ZM1491.07 18.28C1491.5 17.38 1494.12 16.5 1496 16.5C1497.88 16.5 1500.51 17.38 1500.93 18.28C1499.57 19.36 1497.86 20 1496 20C1494.14 20 1492.43 19.36 1491.07 18.28ZM1502.36 16.83C1500.93 15.09 1497.46 14.5 1496 14.5C1494.54 14.5 1491.07 15.09 1489.64 16.83C1488.62 15.49 1488 13.82 1488 12C1488 7.59 1491.59 4 1496 4C1500.41 4 1504 7.59 1504 12C1504 13.82 1503.38 15.49 1502.36 16.83V16.83ZM1496 6C1494.06 6 1492.5 7.56 1492.5 9.5C1492.5 11.44 1494.06 13 1496 13C1497.94 13 1499.5 11.44 1499.5 9.5C1499.5 7.56 1497.94 6 1496 6ZM1496 11C1495.17 11 1494.5 10.33 1494.5 9.5C1494.5 8.67 1495.17 8 1496 8C1496.83 8 1497.5 8.67 1497.5 9.5C1497.5 10.33 1496.83 11 1496 11Z" fill="white"/>
</mask>
<g mask="url(#mask0_863_350)">
</g>
<g clip-path="url(#clip0_863_350)">
<path d="M3.2962 20.584C3.59486 18.088 3.7442 14.7067 3.7442 10.44C3.7442 6.15203 3.56286 2.98403 3.2002 0.936026C4.88553 0.338692 6.85886 0.0400257 9.1202 0.0400257C11.4029 0.0400257 13.0775 0.552025 14.1442 1.57603C15.2109 2.60003 15.7442 4.10403 15.7442 6.08803C15.7442 8.05069 15.0615 9.54403 13.6962 10.568C15.9789 11.464 17.1202 13.096 17.1202 15.464C17.1202 19.4747 14.6775 21.48 9.7922 21.48C7.21086 21.48 5.04553 21.1814 3.2962 20.584ZM8.0002 9.09603C8.46953 9.41603 9.1842 9.57603 10.1442 9.57603C11.1255 9.57603 11.8402 9.24536 12.2882 8.58403C12.7362 7.90136 12.9602 7.00536 12.9602 5.89603C12.9602 4.78669 12.6509 3.83736 12.0322 3.04803C11.4349 2.25869 10.4322 1.86403 9.0242 1.86403C8.23486 1.86403 7.3602 2.05603 6.4002 2.44003C6.22953 4.16803 6.1442 6.71736 6.1442 10.088C6.1442 13.4587 6.22953 16.2747 6.4002 18.536C7.63753 19.0267 8.77886 19.272 9.8242 19.272C12.8322 19.272 14.3362 18.0027 14.3362 15.464C14.3362 13.3094 13.3442 12.008 11.3602 11.56C10.7842 11.6667 10.1762 11.72 9.5362 11.72C8.8962 11.72 8.1602 11.56 7.3282 11.24C7.3282 10.2587 7.5522 9.54403 8.0002 9.09603Z" fill="white"/>
<path d="M31.1424 13.128C29.5424 13.64 27.9424 13.896 26.3424 13.896C24.7638 13.896 23.5798 13.8427 22.7904 13.736C22.7904 15.656 23.0998 17.0534 23.7184 17.928C24.2944 18.76 25.1904 19.176 26.4064 19.176C27.6224 19.176 28.9451 18.5147 30.3744 17.192C30.9931 17.832 31.3878 18.6747 31.5584 19.72C29.8304 20.8934 28.0278 21.48 26.1504 21.48C23.9104 21.48 22.3531 20.7547 21.4784 19.304C20.6038 17.832 20.1664 15.8907 20.1664 13.48C20.1664 11.0694 20.6464 9.17069 21.6064 7.78403C22.5878 6.39736 24.1771 5.70403 26.3744 5.70403C27.9104 5.70403 29.1371 6.17336 30.0544 7.11203C30.9931 8.02936 31.4624 9.12803 31.4624 10.408C31.4838 11.6667 31.3771 12.5734 31.1424 13.128ZM26.1504 7.49603C24.1878 7.49603 23.0784 8.95736 22.8224 11.88C23.7398 11.9867 24.7744 12.04 25.9264 12.04C27.0998 12.04 28.0171 11.9334 28.6784 11.72C28.7638 10.952 28.8064 10.5574 28.8064 10.536C28.8064 9.70403 28.5931 8.98936 28.1664 8.39203C27.7398 7.79469 27.0678 7.49603 26.1504 7.49603Z" fill="white"/>
<path d="M35.8839 15.816C35.8839 15.816 35.9053 13.4374 35.9479 8.68003C35.9479 8.36003 35.9373 8.11469 35.9159 7.94403C35.0199 7.94403 34.3799 7.95469 33.9959 7.97603C33.8679 7.63469 33.8039 7.30403 33.8039 6.98403C33.8039 6.64269 33.8253 6.38669 33.8679 6.21603H35.8199L35.6599 3.84803C36.1933 3.67736 36.7479 3.59203 37.3239 3.59203C37.9213 3.59203 38.4119 3.63469 38.7959 3.72003L38.5079 6.18403C39.6813 6.16269 40.8653 6.09869 42.0599 5.99203C42.1879 6.26936 42.2519 6.57869 42.2519 6.92003C42.2519 7.24003 42.2093 7.63469 42.1239 8.10403C41.3346 8.06136 40.0866 8.01869 38.3799 7.97603C38.3373 8.40269 38.3159 9.03203 38.3159 9.86403V16.36C38.3159 16.9147 38.3373 17.3734 38.3799 17.736C38.4439 18.0774 38.5826 18.3974 38.7959 18.696C39.0306 18.9734 39.3613 19.112 39.7879 19.112C40.7266 19.112 41.6226 18.7814 42.4759 18.12C42.9239 18.76 43.1479 19.624 43.1479 20.712C41.9746 21.224 40.9506 21.48 40.0759 21.48C39.2226 21.48 38.5399 21.3627 38.0279 21.128C37.5159 20.9147 37.1213 20.6587 36.8439 20.36C36.5666 20.04 36.3533 19.6027 36.2039 19.048C35.9906 18.2587 35.8839 17.1814 35.8839 15.816Z" fill="white"/>
<path d="M45.3914 15.816C45.3914 15.816 45.4128 13.4374 45.4554 8.68003C45.4554 8.36003 45.4448 8.11469 45.4234 7.94403C44.5274 7.94403 43.8874 7.95469 43.5034 7.97603C43.3754 7.63469 43.3114 7.30403 43.3114 6.98403C43.3114 6.64269 43.3328 6.38669 43.3754 6.21603H45.3274L45.1674 3.84803C45.7008 3.67736 46.2554 3.59203 46.8314 3.59203C47.4288 3.59203 47.9194 3.63469 48.3034 3.72003L48.0154 6.18403C49.1888 6.16269 50.3728 6.09869 51.5674 5.99203C51.6954 6.26936 51.7594 6.57869 51.7594 6.92003C51.7594 7.24003 51.7168 7.63469 51.6314 8.10403C50.8421 8.06136 49.5941 8.01869 47.8874 7.97603C47.8448 8.40269 47.8234 9.03203 47.8234 9.86403V16.36C47.8234 16.9147 47.8448 17.3734 47.8874 17.736C47.9514 18.0774 48.0901 18.3974 48.3034 18.696C48.5381 18.9734 48.8688 19.112 49.2954 19.112C50.2341 19.112 51.1301 18.7814 51.9834 18.12C52.4314 18.76 52.6554 19.624 52.6554 20.712C51.4821 21.224 50.4581 21.48 49.5834 21.48C48.7301 21.48 48.0474 21.3627 47.5354 21.128C47.0234 20.9147 46.6288 20.6587 46.3514 20.36C46.0741 20.04 45.8608 19.6027 45.7114 19.048C45.4981 18.2587 45.3914 17.1814 45.3914 15.816Z" fill="white"/>
<path d="M65.5399 13.128C63.9399 13.64 62.3399 13.896 60.7399 13.896C59.1613 13.896 57.9773 13.8427 57.1879 13.736C57.1879 15.656 57.4973 17.0534 58.1159 17.928C58.6919 18.76 59.5879 19.176 60.8039 19.176C62.0199 19.176 63.3426 18.5147 64.7719 17.192C65.3906 17.832 65.7853 18.6747 65.9559 19.72C64.2279 20.8934 62.4253 21.48 60.5479 21.48C58.3079 21.48 56.7506 20.7547 55.8759 19.304C55.0013 17.832 54.5639 15.8907 54.5639 13.48C54.5639 11.0694 55.0439 9.17069 56.0039 7.78403C56.9853 6.39736 58.5746 5.70403 60.7719 5.70403C62.3079 5.70403 63.5346 6.17336 64.4519 7.11203C65.3906 8.02936 65.8599 9.12803 65.8599 10.408C65.8813 11.6667 65.7746 12.5734 65.5399 13.128ZM60.5479 7.49603C58.5853 7.49603 57.4759 8.95736 57.2199 11.88C58.1373 11.9867 59.1719 12.04 60.3239 12.04C61.4973 12.04 62.4146 11.9334 63.0759 11.72C63.1613 10.952 63.2039 10.5574 63.2039 10.536C63.2039 9.70403 62.9906 8.98936 62.5639 8.39203C62.1373 7.79469 61.4653 7.49603 60.5479 7.49603Z" fill="white"/>
<path d="M72.9694 7.81603C73.4601 7.26136 74.0361 6.80269 74.6974 6.44003C75.3588 6.05603 76.0094 5.86403 76.6494 5.86403C77.2894 5.86403 77.8121 6.21603 78.2174 6.92003C78.6228 7.62403 78.8254 8.47736 78.8254 9.48003C78.8254 9.84269 78.8041 10.152 78.7614 10.408C78.3774 10.6 77.9828 10.696 77.5774 10.696C77.1934 10.696 76.7241 10.6534 76.1694 10.568C76.2121 10.2267 76.2334 10.0027 76.2334 9.89603C76.2334 8.72269 75.8068 8.13603 74.9534 8.13603C74.7188 8.13603 74.3988 8.28536 73.9934 8.58403C73.5881 8.88269 73.2041 9.25603 72.8414 9.70403C72.7988 10.3867 72.7775 11.4214 72.7775 12.808C72.7775 16.3067 72.9694 18.9734 73.3534 20.808C72.5854 21.0214 71.9348 21.128 71.4014 21.128C70.8681 21.128 70.3881 21.1067 69.9614 21.064C70.2814 18.1627 70.4414 15.624 70.4414 13.448C70.4414 11.272 70.2281 8.90403 69.8014 6.34403C70.6548 6.13069 71.3268 6.02403 71.8174 6.02403C72.3081 6.02403 72.6921 6.06669 72.9694 6.15203V7.81603Z" fill="white"/>
<path d="M89.1192 21C88.3512 21.192 87.6472 21.288 87.0072 21.288C86.3885 21.288 85.9832 21.2774 85.7912 21.256C85.5352 20.36 85.0125 18.3547 84.2232 15.24C82.4312 8.00803 81.0125 3.21869 79.9672 0.872026C80.8632 0.445359 81.6525 0.232025 82.3352 0.232025C83.0179 0.232025 83.4765 0.242692 83.7112 0.264027C84.6925 7.75203 85.9939 13.736 87.6152 18.216H87.8072C88.4685 16.5947 89.0979 14.3547 89.6952 11.496C90.3139 8.61603 90.7832 5.91736 91.1032 3.40003C91.7432 3.14403 92.2659 3.01603 92.6712 3.01603C93.0979 3.01603 93.4819 3.03736 93.8232 3.08003C94.7832 9.56536 95.9565 14.6107 97.3432 18.216H97.5352C98.3672 15.848 99.1459 12.7974 99.8712 9.06403C100.597 5.30936 101.013 2.44003 101.119 0.456026C101.418 0.392026 101.717 0.360025 102.015 0.360025C103.061 0.360025 103.925 0.573359 104.607 1.00003C104.223 1.96003 103.327 4.88269 101.919 9.76803C100.533 14.6534 99.5085 18.3974 98.8472 21C98.0792 21.192 97.3752 21.288 96.7352 21.288C96.1165 21.288 95.7112 21.2774 95.5192 21.256C95.2205 20.232 94.7085 18.3014 93.9832 15.464C93.2792 12.6267 92.7565 10.5574 92.4152 9.25603H92.2552C90.8259 14.44 89.7805 18.3547 89.1192 21Z" fill="white"/>
<path d="M107.118 13.416C107.118 8.27469 109.123 5.70403 113.134 5.70403C117.144 5.70403 119.15 8.27469 119.15 13.416C119.15 15.784 118.776 17.6614 118.03 19.048C117.176 20.6694 115.544 21.48 113.134 21.48C110.723 21.48 109.091 20.6694 108.238 19.048C107.491 17.6614 107.118 15.784 107.118 13.416ZM109.742 13.352C109.742 17.2347 110.872 19.176 113.134 19.176C115.395 19.176 116.526 17.2347 116.526 13.352C116.526 9.44803 115.395 7.49603 113.134 7.49603C110.872 7.49603 109.742 9.44803 109.742 13.352Z" fill="white"/>
<path d="M125.992 7.81603C126.483 7.26136 127.059 6.80269 127.72 6.44003C128.381 6.05603 129.032 5.86403 129.672 5.86403C130.312 5.86403 130.835 6.21603 131.24 6.92003C131.645 7.62403 131.848 8.47736 131.848 9.48003C131.848 9.84269 131.827 10.152 131.784 10.408C131.4 10.6 131.005 10.696 130.6 10.696C130.216 10.696 129.747 10.6534 129.192 10.568C129.235 10.2267 129.256 10.0027 129.256 9.89603C129.256 8.72269 128.829 8.13603 127.976 8.13603C127.741 8.13603 127.421 8.28536 127.016 8.58403C126.611 8.88269 126.227 9.25603 125.864 9.70403C125.821 10.3867 125.8 11.4214 125.8 12.808C125.8 16.3067 125.992 18.9734 126.376 20.808C125.608 21.0214 124.957 21.128 124.424 21.128C123.891 21.128 123.411 21.1067 122.984 21.064C123.304 18.1627 123.464 15.624 123.464 13.448C123.464 11.272 123.251 8.90403 122.824 6.34403C123.677 6.13069 124.349 6.02403 124.84 6.02403C125.331 6.02403 125.715 6.06669 125.992 6.15203V7.81603Z" fill="white"/>
<path d="M134.814 21.064C135.134 18.2907 135.294 15.0054 135.294 11.208C135.294 7.38936 135.262 4.86136 135.198 3.62403C135.134 2.38669 134.974 1.01069 134.718 -0.503975C135.272 -0.717308 135.827 -0.823975 136.382 -0.823975C136.936 -0.823975 137.512 -0.802641 138.11 -0.759974C137.79 1.86403 137.63 5.78936 137.63 11.016C137.63 16.2427 137.822 19.5067 138.206 20.808C137.502 21.0214 136.851 21.128 136.254 21.128C135.656 21.128 135.176 21.1067 134.814 21.064Z" fill="white"/>
<path d="M151.547 8.52003C150.203 7.90136 149.137 7.59203 148.347 7.59203C147.579 7.59203 146.961 7.79469 146.491 8.20003C146.043 8.60536 145.723 9.16003 145.531 9.86403C145.211 11.0587 145.051 12.424 145.051 13.96C145.051 17.3307 145.958 19.016 147.771 19.016C148.411 19.016 149.073 18.8347 149.755 18.472C150.438 18.088 151.014 17.6294 151.483 17.096C151.526 15.3254 151.547 12.4667 151.547 8.52003ZM154.363 -0.759974C154.043 1.99203 153.883 5.30936 153.883 9.19203C153.883 13.0747 153.915 15.56 153.979 16.648C154.043 17.736 154.203 19.112 154.459 20.776C153.798 20.9894 153.158 21.096 152.539 21.096C151.921 21.096 151.515 21.0854 151.323 21.064L151.387 19.4C149.915 20.7867 148.401 21.48 146.843 21.48C145.926 21.48 145.147 21.2347 144.507 20.744C143.889 20.232 143.43 19.56 143.131 18.728C142.598 17.2347 142.331 15.592 142.331 13.8C142.331 8.40269 144.294 5.70403 148.219 5.70403C149.286 5.70403 150.385 5.96003 151.515 6.47203C151.473 3.57069 151.291 1.24536 150.971 -0.503975C151.441 -0.717308 152.241 -0.823975 153.371 -0.823975C153.499 -0.823975 153.67 -0.813308 153.883 -0.791975C154.118 -0.770641 154.278 -0.759974 154.363 -0.759974Z" fill="white"/>
<path d="M160.124 21.192C160.423 18.696 160.572 15.144 160.572 10.536C160.572 5.92803 160.391 2.60003 160.028 0.552025C160.583 0.338692 161.052 0.232025 161.436 0.232025C161.842 0.232025 162.343 0.253359 162.94 0.296026C163.346 1.83203 164.508 4.16803 166.428 7.30403C168.37 10.4187 170.386 13.4374 172.476 16.36C172.54 14.568 172.572 12.84 172.572 11.176C172.572 6.14136 172.391 2.60003 172.028 0.552025C172.583 0.338692 173.052 0.232025 173.436 0.232025C173.842 0.232025 174.343 0.253359 174.94 0.296026C174.642 2.66403 174.492 6.40803 174.492 11.528C174.492 16.648 174.674 19.784 175.036 20.936C174.396 21.1494 173.927 21.256 173.628 21.256C173.351 21.256 172.85 21.2347 172.124 21.192C171.975 20.5307 171.346 19.336 170.236 17.608C169.127 15.8587 167.74 13.7787 166.076 11.368C164.434 8.95736 163.25 7.15469 162.524 5.96003C162.503 6.87736 162.492 8.28536 162.492 10.184C162.492 16.2 162.674 19.784 163.036 20.936C162.396 21.1494 161.927 21.256 161.628 21.256C161.351 21.256 160.85 21.2347 160.124 21.192Z" fill="white"/>
<path d="M179.593 13.416C179.593 8.27469 181.598 5.70403 185.609 5.70403C189.619 5.70403 191.625 8.27469 191.625 13.416C191.625 15.784 191.251 17.6614 190.505 19.048C189.651 20.6694 188.019 21.48 185.609 21.48C183.198 21.48 181.566 20.6694 180.713 19.048C179.966 17.6614 179.593 15.784 179.593 13.416ZM182.217 13.352C182.217 17.2347 183.347 19.176 185.609 19.176C187.87 19.176 189.001 17.2347 189.001 13.352C189.001 9.44803 187.87 7.49603 185.609 7.49603C183.347 7.49603 182.217 9.44803 182.217 13.352Z" fill="white"/>
<path d="M209.923 6.05603C209.923 6.05603 210.307 6.04536 211.075 6.02403C211.822 6.02403 212.558 6.19469 213.283 6.53603C212.622 8.15736 211.694 10.5787 210.499 13.8C209.304 17.0214 208.504 19.4214 208.099 21C207.544 21.1494 207.043 21.224 206.595 21.224C206.168 21.224 205.88 21.2134 205.731 21.192C205.496 19.528 204.792 16.4667 203.619 12.008H203.491C202.275 15.6774 201.4 18.6747 200.867 21C200.312 21.1494 199.811 21.224 199.363 21.224C198.936 21.224 198.648 21.2134 198.499 21.192C198.094 19.2507 197.422 16.84 196.483 13.96C195.566 11.0587 194.659 8.58403 193.763 6.53603C194.616 6.17336 195.384 5.99203 196.067 5.99203C196.771 5.99203 197.24 6.00269 197.475 6.02403C197.624 8.66936 198.424 12.4774 199.875 17.448H200.003C200.472 16.3814 200.952 14.8667 201.443 12.904C201.934 10.92 202.243 9.24536 202.371 7.88003C203.011 7.73069 203.555 7.65603 204.003 7.65603C204.472 7.65603 204.899 7.68803 205.283 7.75203C205.71 11.2507 206.318 14.4827 207.107 17.448H207.235C207.854 16.1254 208.44 14.2907 208.995 11.944C209.55 9.59736 209.859 7.63469 209.923 6.05603Z" fill="white"/>
</g>
<path d="M984.404 7.40002H988.076C989.072 7.40002 989.9 7.67602 990.56 8.22802C991.22 8.78002 991.55 9.56603 991.55 10.586C991.55 11.066 991.472 11.522 991.316 11.954C991.16 12.386 990.842 12.764 990.362 13.088L990.344 13.124V13.142C990.872 13.382 991.31 13.766 991.658 14.294C992.018 14.822 992.198 15.494 992.198 16.31C992.198 16.934 992.072 17.528 991.82 18.092C991.568 18.644 991.154 19.1 990.578 19.46C990.002 19.82 989.258 20 988.346 20H984.404V7.40002ZM987.248 12.566C987.932 12.566 988.436 12.44 988.76 12.188C989.084 11.936 989.246 11.504 989.246 10.892C989.246 10.328 989.096 9.93802 988.796 9.72202C988.496 9.49402 988.04 9.38002 987.428 9.38002H986.384V12.566H987.248ZM987.482 18.182C988.034 18.182 988.478 18.14 988.814 18.056C989.162 17.96 989.432 17.774 989.624 17.498C989.828 17.222 989.93 16.814 989.93 16.274C989.93 15.59 989.72 15.122 989.3 14.87C988.88 14.606 988.328 14.474 987.644 14.474H986.384V18.182H987.482Z" fill="white"/>
<path d="M994.301 7.40002H996.281V20H994.301V7.40002Z" fill="white"/>
<path d="M1005.83 16.688C1005.83 17.696 1005.56 18.53 1005 19.19C1004.45 19.85 1003.62 20.18 1002.5 20.18C1001.39 20.18 1000.54 19.85 999.963 19.19C999.399 18.518 999.117 17.684 999.117 16.688V14.312C999.117 13.172 999.405 12.302 999.981 11.702C1000.57 11.09 1001.41 10.784 1002.5 10.784C1003.55 10.784 1004.36 11.102 1004.95 11.738C1005.54 12.362 1005.83 13.22 1005.83 14.312V16.688ZM1003.87 14.312C1003.87 13.676 1003.74 13.262 1003.47 13.07C1003.21 12.878 1002.89 12.782 1002.5 12.782C1001.57 12.782 1001.1 13.292 1001.1 14.312V16.868C1001.1 17.348 1001.23 17.696 1001.49 17.912C1001.76 18.128 1002.09 18.236 1002.5 18.236C1002.9 18.236 1003.22 18.122 1003.47 17.894C1003.74 17.666 1003.87 17.324 1003.87 16.868V14.312Z" fill="white"/>
<path d="M1011.05 22.232C1011.45 22.232 1011.77 22.112 1012 21.872C1012.24 21.644 1012.36 21.296 1012.36 20.828V19.856C1012.26 19.928 1012.09 20.006 1011.84 20.09C1011.6 20.174 1011.29 20.216 1010.9 20.216C1009.85 20.216 1009.02 19.928 1008.44 19.352C1007.85 18.776 1007.55 17.936 1007.55 16.832V14.15C1007.55 13.094 1007.86 12.278 1008.47 11.702C1009.1 11.114 1009.93 10.82 1010.97 10.82C1011.31 10.82 1011.61 10.862 1011.87 10.946C1012.14 11.018 1012.31 11.096 1012.38 11.18L1012.76 10.982H1014.34V21.152C1014.34 22.904 1013.4 23.78 1011.51 23.78L1011.05 22.232ZM1012.36 14.33C1012.36 13.85 1012.25 13.472 1012.04 13.196C1011.82 12.92 1011.44 12.782 1010.9 12.782C1010.41 12.782 1010.06 12.926 1009.84 13.214C1009.64 13.49 1009.53 13.832 1009.53 14.24V16.562C1009.53 17.726 1009.99 18.308 1010.9 18.308C1011.49 18.308 1011.88 18.116 1012.07 17.732C1012.26 17.348 1012.36 16.718 1012.36 15.842V14.33Z" fill="white"/>
<path d="M739.404 7.40002H741.384V18.182H745.902V20H739.404V7.40002Z" fill="white"/>
<path d="M748.556 17.318C748.556 17.654 748.646 17.918 748.826 18.11C749.018 18.29 749.294 18.38 749.654 18.38C750.206 18.38 750.944 18.14 751.868 17.66L752.588 19.37C752.156 19.646 751.664 19.856 751.112 20C750.56 20.144 750.008 20.216 749.456 20.216C748.568 20.216 747.86 20 747.332 19.568C746.816 19.124 746.558 18.464 746.558 17.588V13.898C746.558 12.926 746.858 12.17 747.458 11.63C748.07 11.09 748.874 10.82 749.87 10.82C750.866 10.82 751.64 11.09 752.192 11.63C752.756 12.158 753.038 12.896 753.038 13.844V16.58L748.556 16.814V17.318ZM751.04 13.88C751.04 13.52 750.926 13.244 750.698 13.052C750.47 12.86 750.188 12.764 749.852 12.764C749.396 12.764 749.066 12.884 748.862 13.124C748.658 13.364 748.556 13.628 748.556 13.916V14.996L751.04 14.834V13.88Z" fill="white"/>
<path d="M761.329 20C760.033 20.132 759.097 20.198 758.521 20.198C757.261 20.198 756.259 19.964 755.515 19.496C754.771 19.028 754.399 18.182 754.399 16.958V15.464C754.399 14.276 754.813 13.478 755.641 13.07C756.037 12.878 756.487 12.782 756.991 12.782C757.435 12.782 757.873 12.842 758.305 12.962C758.737 13.082 759.085 13.214 759.349 13.358C759.349 12.914 759.169 12.614 758.809 12.458C758.449 12.29 757.987 12.206 757.423 12.206L757.585 10.838C758.737 10.838 759.583 11.024 760.123 11.396C760.675 11.756 761.011 12.188 761.131 12.692C761.263 13.196 761.329 13.844 761.329 14.636V20ZM759.349 15.464C759.133 15.308 758.827 15.164 758.431 15.032C758.047 14.888 757.693 14.816 757.369 14.816C757.081 14.816 756.847 14.888 756.667 15.032C756.487 15.176 756.397 15.404 756.397 15.716V16.706C756.397 17.798 757.039 18.344 758.323 18.344C758.695 18.344 759.037 18.314 759.349 18.254V15.464Z" fill="white"/>
<path d="M763.381 13.772C763.381 12.512 763.891 11.648 764.911 11.18C765.403 10.94 765.979 10.82 766.639 10.82C767.203 10.82 767.677 10.892 768.061 11.036V7.40002H770.023V20L769.033 20.09C768.253 20.174 767.641 20.216 767.197 20.216C766.753 20.216 766.333 20.174 765.937 20.09C765.553 20.006 765.169 19.868 764.785 19.676C764.353 19.46 764.011 19.142 763.759 18.722C763.507 18.302 763.381 17.786 763.381 17.174V13.772ZM768.061 13.124C767.629 12.92 767.227 12.818 766.855 12.818C766.423 12.818 766.063 12.956 765.775 13.232C765.487 13.508 765.343 13.928 765.343 14.492V17.3C765.343 17.612 765.511 17.87 765.847 18.074C766.183 18.278 766.609 18.38 767.125 18.38C767.449 18.38 767.761 18.338 768.061 18.254V13.124Z" fill="white"/>
<path d="M773.71 17.318C773.71 17.654 773.8 17.918 773.98 18.11C774.172 18.29 774.448 18.38 774.808 18.38C775.36 18.38 776.098 18.14 777.022 17.66L777.742 19.37C777.31 19.646 776.818 19.856 776.266 20C775.714 20.144 775.162 20.216 774.61 20.216C773.722 20.216 773.014 20 772.486 19.568C771.97 19.124 771.712 18.464 771.712 17.588V13.898C771.712 12.926 772.012 12.17 772.612 11.63C773.224 11.09 774.028 10.82 775.024 10.82C776.02 10.82 776.794 11.09 777.346 11.63C777.91 12.158 778.192 12.896 778.192 13.844V16.58L773.71 16.814V17.318ZM776.194 13.88C776.194 13.52 776.08 13.244 775.852 13.052C775.624 12.86 775.342 12.764 775.006 12.764C774.55 12.764 774.22 12.884 774.016 13.124C773.812 13.364 773.71 13.628 773.71 13.916V14.996L776.194 14.834V13.88Z" fill="white"/>
<path d="M779.985 10.982H781.821L781.965 11.054C782.457 10.886 782.919 10.802 783.351 10.802C783.651 10.802 784.089 10.862 784.665 10.982L785.025 11.054L784.557 12.98C784.221 12.812 783.891 12.728 783.567 12.728C783.123 12.728 782.745 12.866 782.433 13.142C782.121 13.406 781.965 13.76 781.965 14.204V20H779.985V10.982Z" fill="white"/>
<path d="M787.129 7.40002H790.801C791.797 7.40002 792.625 7.67602 793.285 8.22802C793.945 8.78002 794.275 9.56603 794.275 10.586C794.275 11.066 794.197 11.522 794.041 11.954C793.885 12.386 793.567 12.764 793.087 13.088L793.069 13.124V13.142C793.597 13.382 794.035 13.766 794.383 14.294C794.743 14.822 794.923 15.494 794.923 16.31C794.923 16.934 794.797 17.528 794.545 18.092C794.293 18.644 793.879 19.1 793.303 19.46C792.727 19.82 791.983 20 791.071 20H787.129V7.40002ZM789.973 12.566C790.657 12.566 791.161 12.44 791.485 12.188C791.809 11.936 791.971 11.504 791.971 10.892C791.971 10.328 791.821 9.93802 791.521 9.72202C791.221 9.49402 790.765 9.38002 790.153 9.38002H789.109V12.566H789.973ZM790.207 18.182C790.759 18.182 791.203 18.14 791.539 18.056C791.887 17.96 792.157 17.774 792.349 17.498C792.553 17.222 792.655 16.814 792.655 16.274C792.655 15.59 792.445 15.122 792.025 14.87C791.605 14.606 791.053 14.474 790.369 14.474H789.109V18.182H790.207Z" fill="white"/>
<path d="M803.739 16.688C803.739 17.696 803.463 18.53 802.911 19.19C802.359 19.85 801.525 20.18 800.409 20.18C799.293 20.18 798.447 19.85 797.871 19.19C797.307 18.518 797.025 17.684 797.025 16.688V14.312C797.025 13.172 797.313 12.302 797.889 11.702C798.477 11.09 799.317 10.784 800.409 10.784C801.453 10.784 802.269 11.102 802.857 11.738C803.445 12.362 803.739 13.22 803.739 14.312V16.688ZM801.777 14.312C801.777 13.676 801.645 13.262 801.381 13.07C801.117 12.878 800.793 12.782 800.409 12.782C799.473 12.782 799.005 13.292 799.005 14.312V16.868C799.005 17.348 799.137 17.696 799.401 17.912C799.665 18.128 800.001 18.236 800.409 18.236C800.805 18.236 801.129 18.122 801.381 17.894C801.645 17.666 801.777 17.324 801.777 16.868V14.312Z" fill="white"/>
<path d="M812.042 20C810.746 20.132 809.81 20.198 809.234 20.198C807.974 20.198 806.972 19.964 806.228 19.496C805.484 19.028 805.112 18.182 805.112 16.958V15.464C805.112 14.276 805.526 13.478 806.354 13.07C806.75 12.878 807.2 12.782 807.704 12.782C808.148 12.782 808.586 12.842 809.018 12.962C809.45 13.082 809.798 13.214 810.062 13.358C810.062 12.914 809.882 12.614 809.522 12.458C809.162 12.29 808.7 12.206 808.136 12.206L808.298 10.838C809.45 10.838 810.296 11.024 810.836 11.396C811.388 11.756 811.724 12.188 811.844 12.692C811.976 13.196 812.042 13.844 812.042 14.636V20ZM810.062 15.464C809.846 15.308 809.54 15.164 809.144 15.032C808.76 14.888 808.406 14.816 808.082 14.816C807.794 14.816 807.56 14.888 807.38 15.032C807.2 15.176 807.11 15.404 807.11 15.716V16.706C807.11 17.798 807.752 18.344 809.036 18.344C809.408 18.344 809.75 18.314 810.062 18.254V15.464Z" fill="white"/>
<path d="M813.788 10.982H815.624L815.768 11.054C816.26 10.886 816.722 10.802 817.154 10.802C817.454 10.802 817.892 10.862 818.468 10.982L818.828 11.054L818.36 12.98C818.024 12.812 817.694 12.728 817.37 12.728C816.926 12.728 816.548 12.866 816.236 13.142C815.924 13.406 815.768 13.76 815.768 14.204V20H813.788V10.982Z" fill="white"/>
<path d="M820.07 13.772C820.07 12.512 820.58 11.648 821.6 11.18C822.092 10.94 822.668 10.82 823.328 10.82C823.892 10.82 824.366 10.892 824.75 11.036V7.40002H826.712V20L825.722 20.09C824.942 20.174 824.33 20.216 823.886 20.216C823.442 20.216 823.022 20.174 822.626 20.09C822.242 20.006 821.858 19.868 821.474 19.676C821.042 19.46 820.7 19.142 820.448 18.722C820.196 18.302 820.07 17.786 820.07 17.174V13.772ZM824.75 13.124C824.318 12.92 823.916 12.818 823.544 12.818C823.112 12.818 822.752 12.956 822.464 13.232C822.176 13.508 822.032 13.928 822.032 14.492V17.3C822.032 17.612 822.2 17.87 822.536 18.074C822.872 18.278 823.298 18.38 823.814 18.38C824.138 18.38 824.45 18.338 824.75 18.254V13.124Z" fill="white"/>
<defs>
<clipPath id="clip0_863_350">
<rect width="227" height="24" fill="white"/>
</clipPath>
</defs>
</svg>
