<?xml version="1.0" encoding="utf-8"?>
<!-- Generator: Adobe Illustrator 27.5.0, SVG Export Plug-In . SVG Version: 6.00 Build 0)  -->
<svg version="1.1" id="Layer_1" xmlns="http://www.w3.org/2000/svg" xmlns:xlink="http://www.w3.org/1999/xlink" x="0px" y="0px"
	 viewBox="0 0 32 32" style="enable-background:new 0 0 32 32;" xml:space="preserve">
<style type="text/css">
	.st0{fill:none;}
	.st1{fill-rule:evenodd;clip-rule:evenodd;fill:#FFFFFF;}
	.st2{fill-rule:evenodd;clip-rule:evenodd;fill:#FFFFFF;filter:url(#Adobe_OpacityMaskFilter);}
	.st3{mask:url(#mask0_876_181_00000074441595307605491950000004321780621443285139_);}
</style>
<g>
	<rect x="4" class="st0" width="24" height="24"/>
	<path class="st1" d="M16,2C10.5,2,6,6.5,6,12s4.5,10,10,10s10-4.5,10-10S21.5,2,16,2z M11.1,18.3c0.4-0.9,3.1-1.8,4.9-1.8
		s4.5,0.9,4.9,1.8C19.6,19.4,17.9,20,16,20S12.4,19.4,11.1,18.3z M22.4,16.8c-1.4-1.7-4.9-2.3-6.4-2.3s-4.9,0.6-6.4,2.3
		c-1-1.3-1.6-3-1.6-4.8c0-4.4,3.6-8,8-8s8,3.6,8,8C24,13.8,23.4,15.5,22.4,16.8L22.4,16.8z M16,6c-1.9,0-3.5,1.6-3.5,3.5
		S14.1,13,16,13s3.5-1.6,3.5-3.5S17.9,6,16,6z M16,11c-0.8,0-1.5-0.7-1.5-1.5S15.2,8,16,8s1.5,0.7,1.5,1.5S16.8,11,16,11z"/>
	<defs>
		<filter id="Adobe_OpacityMaskFilter" filterUnits="userSpaceOnUse">
			<feColorMatrix  type="matrix" values="1 0 0 0 0  0 1 0 0 0  0 0 1 0 0  0 0 0 1 0"/>
		</filter>
	</defs>
	<mask maskUnits="userSpaceOnUse" id="mask0_876_181_00000074441595307605491950000004321780621443285139_">
		<path class="st2" d="M16,2C10.5,2,6,6.5,6,12s4.5,10,10,10s10-4.5,10-10S21.5,2,16,2z M11.1,18.3c0.4-0.9,3.1-1.8,4.9-1.8
			s4.5,0.9,4.9,1.8C19.6,19.4,17.9,20,16,20S12.4,19.4,11.1,18.3z M22.4,16.8c-1.4-1.7-4.9-2.3-6.4-2.3s-4.9,0.6-6.4,2.3
			c-1-1.3-1.6-3-1.6-4.8c0-4.4,3.6-8,8-8s8,3.6,8,8C24,13.8,23.4,15.5,22.4,16.8L22.4,16.8z M16,6c-1.9,0-3.5,1.6-3.5,3.5
			S14.1,13,16,13s3.5-1.6,3.5-3.5S17.9,6,16,6z M16,11c-0.8,0-1.5-0.7-1.5-1.5S15.2,8,16,8s1.5,0.7,1.5,1.5S16.8,11,16,11z"/>
	</mask>
	<g class="st3">
	</g>
</g>
</svg>
