<svg width="44" height="19" viewBox="0 0 44 19" fill="none" xmlns="http://www.w3.org/2000/svg">
<path d="M2.46797 4.08753V18.0875H0.667969V0.587524H2.46797L11.143 14.5625V0.587524H12.968V18.0875H11.143L2.46797 4.08753Z" fill="white"/>
<path d="M24.2277 17.2125C23.6277 17.5959 22.9444 17.8875 22.1777 18.0875C21.4111 18.2875 20.6444 18.3875 19.8777 18.3875C18.6444 18.3875 17.6611 18.0875 16.9277 17.4875C16.2111 16.8709 15.8527 15.9542 15.8527 14.7375V9.61252C15.8527 8.26252 16.2694 7.21252 17.1027 6.46252C17.9527 5.71252 19.0694 5.33752 20.4527 5.33752C21.8361 5.33752 22.9111 5.71252 23.6777 6.46252C24.4611 7.19586 24.8527 8.22086 24.8527 9.53753V12.9625L17.6527 13.3375V14.6375C17.6527 15.3375 17.8694 15.8625 18.3027 16.2125C18.7361 16.5625 19.3277 16.7375 20.0777 16.7375C21.1611 16.7375 22.3194 16.4042 23.5527 15.7375L24.2277 17.2125ZM23.0277 9.43752C23.0277 8.55419 22.7527 7.92919 22.2027 7.56252C21.6527 7.17919 21.0611 6.98752 20.4277 6.98752C19.5944 6.98752 18.9194 7.21253 18.4027 7.66253C17.9027 8.11253 17.6527 8.77086 17.6527 9.63752V11.6375L23.0277 11.3625V9.43752Z" fill="white"/>
<path d="M31.8607 13.5875L29.0607 18.0875H26.8857L30.7857 11.8625L26.8857 5.56252H29.0357L31.8857 10.1375L34.7607 5.56252H36.8857L32.9357 11.8625L36.8107 18.0875H34.6857L31.8607 13.5875Z" fill="white"/>
<path d="M41.8561 18.4125C40.7894 18.2125 40.0227 17.8125 39.5561 17.2125C39.0894 16.6125 38.8561 15.8042 38.8561 14.7875V0.587524H40.6811V5.56252H43.4811L42.8811 7.26252H40.6811V14.7875C40.6811 15.9709 41.2477 16.7125 42.3811 17.0125L41.8561 18.4125Z" fill="white"/>
</svg>
