<svg width="81" height="19" viewBox="0 0 81 19" fill="none" xmlns="http://www.w3.org/2000/svg">
<path d="M0.755859 0.6875H6.78086C8.41419 0.6875 9.62253 1.19583 10.4059 2.2125C11.2059 3.22917 11.6059 4.5625 11.6059 6.2125C11.6059 7.2625 11.5142 8.22917 11.3309 9.1125C11.1475 9.97917 10.7142 10.7542 10.0309 11.4375C9.34753 12.1042 8.32253 12.4375 6.95586 12.4375H2.55586V18.1875H0.755859V0.6875ZM6.73086 10.6875C7.64753 10.6875 8.33086 10.4625 8.78086 10.0125C9.24753 9.54583 9.53086 9.0125 9.63086 8.4125C9.74753 7.8125 9.80586 7.1375 9.80586 6.3875C9.80586 5.00417 9.53086 4.00417 8.98086 3.3875C8.43086 2.75417 7.64753 2.4375 6.63086 2.4375H2.55586V10.6875H6.73086Z" fill="white"/>
<path d="M14.0027 5.6625H15.7527V6.3125C16.5361 5.72917 17.4611 5.4375 18.5277 5.4375C19.0611 5.4375 19.7111 5.52083 20.4777 5.6875L20.0277 7.3875C19.5277 7.20417 19.0027 7.1125 18.4527 7.1125C17.7194 7.1125 17.0944 7.27083 16.5777 7.5875C16.0611 7.8875 15.8027 8.32917 15.8027 8.9125V18.1875H14.0027V5.6625Z" fill="white"/>
<path d="M29.2229 17.3125C28.6229 17.6958 27.9395 17.9875 27.1729 18.1875C26.4062 18.3875 25.6395 18.4875 24.8729 18.4875C23.6395 18.4875 22.6562 18.1875 21.9229 17.5875C21.2062 16.9708 20.8479 16.0542 20.8479 14.8375V9.7125C20.8479 8.3625 21.2645 7.3125 22.0979 6.5625C22.9479 5.8125 24.0645 5.4375 25.4479 5.4375C26.8312 5.4375 27.9062 5.8125 28.6729 6.5625C29.4562 7.29583 29.8479 8.32083 29.8479 9.6375V13.0625L22.6479 13.4375V14.7375C22.6479 15.4375 22.8645 15.9625 23.2979 16.3125C23.7312 16.6625 24.3229 16.8375 25.0729 16.8375C26.1562 16.8375 27.3145 16.5042 28.5479 15.8375L29.2229 17.3125ZM28.0229 9.5375C28.0229 8.65417 27.7479 8.02917 27.1979 7.6625C26.6479 7.27917 26.0562 7.0875 25.4229 7.0875C24.5895 7.0875 23.9145 7.3125 23.3979 7.7625C22.8979 8.2125 22.6479 8.87083 22.6479 9.7375V11.7375L28.0229 11.4625V9.5375Z" fill="white"/>
<path d="M30.3582 5.6625H32.2832L35.3082 15.7125L38.3582 5.6625H40.2832L36.3832 18.1875H34.2332L30.3582 5.6625Z" fill="white"/>
<path d="M43.7736 2.4875C43.4903 2.4875 43.2403 2.3875 43.0236 2.1875C42.8236 1.97083 42.7236 1.72917 42.7236 1.4625C42.7236 1.19583 42.8236 0.9625 43.0236 0.7625C43.2403 0.545833 43.4903 0.4375 43.7736 0.4375C44.0403 0.4375 44.2736 0.5375 44.4736 0.737501C44.6736 0.9375 44.7736 1.17917 44.7736 1.4625C44.7736 1.74583 44.6736 1.9875 44.4736 2.1875C44.2736 2.3875 44.0403 2.4875 43.7736 2.4875ZM42.8236 5.6625H44.6236V18.1875H42.8236V5.6625Z" fill="white"/>
<path d="M58.0545 13.5875C58.0545 14.9875 57.6712 16.1458 56.9045 17.0625C56.1378 17.9792 54.9795 18.4375 53.4295 18.4375C51.8795 18.4375 50.7045 17.9792 49.9045 17.0625C49.1212 16.1292 48.7295 14.9708 48.7295 13.5875V10.2875C48.7295 8.70417 49.1295 7.49583 49.9295 6.6625C50.7462 5.8125 51.9128 5.3875 53.4295 5.3875C54.8795 5.3875 56.0128 5.82917 56.8295 6.7125C57.6462 7.57917 58.0545 8.77083 58.0545 10.2875V13.5875ZM56.2545 10.2875C56.2545 8.17083 55.3128 7.1125 53.4295 7.1125C52.5462 7.1125 51.8378 7.3625 51.3045 7.8625C50.7878 8.3625 50.5295 9.17083 50.5295 10.2875V13.8375C50.5295 14.7375 50.7878 15.4542 51.3045 15.9875C51.8378 16.5042 52.5462 16.7625 53.4295 16.7625C54.3128 16.7625 55.0045 16.5042 55.5045 15.9875C56.0045 15.4542 56.2545 14.7375 56.2545 13.8375V10.2875Z" fill="white"/>
<path d="M67.4377 17.2625C67.0877 17.6458 66.6544 17.9458 66.1377 18.1625C65.621 18.3625 65.0877 18.4625 64.5377 18.4625C61.4044 18.4625 59.8377 16.9375 59.8377 13.8875V5.6625H61.6377V13.8875C61.6377 14.8542 61.8877 15.5792 62.3877 16.0625C62.8877 16.5292 63.6044 16.7625 64.5377 16.7625C66.421 16.7625 67.3627 15.7958 67.3627 13.8625V5.6625H69.1627V18.1875H67.4377V17.2625Z" fill="white"/>
<path d="M72.7693 14.9375C72.836 15.5542 73.1443 16.0375 73.6943 16.3875C74.2443 16.7208 74.8943 16.8875 75.6443 16.8875C76.3277 16.8875 76.9277 16.7292 77.4443 16.4125C77.9777 16.0792 78.2443 15.5875 78.2443 14.9375C78.2443 14.4875 78.111 14.1125 77.8443 13.8125C77.5943 13.5125 77.2693 13.2792 76.8693 13.1125C76.486 12.9292 75.9527 12.7208 75.2693 12.4875C74.4527 12.2042 73.7943 11.9542 73.2943 11.7375C72.811 11.5042 72.3777 11.1708 71.9943 10.7375C71.6277 10.3042 71.4027 9.74583 71.3193 9.0625L71.2943 8.7625C71.2943 8.2125 71.4443 7.67917 71.7443 7.1625C72.061 6.62917 72.536 6.19583 73.1693 5.8625C73.8193 5.52917 74.6277 5.3625 75.5943 5.3625C76.1277 5.3625 76.5943 5.42083 76.9943 5.5375C77.411 5.6375 77.736 5.74583 77.9693 5.8625C78.2027 5.97917 78.3443 6.05417 78.3943 6.0875L77.8193 7.6625C77.7693 7.62917 77.6527 7.5625 77.4693 7.4625C77.3027 7.3625 77.0527 7.27083 76.7193 7.1875C76.386 7.0875 76.011 7.0375 75.5943 7.0375C74.811 7.0375 74.1943 7.2125 73.7443 7.5625C73.2943 7.9125 73.1027 8.3875 73.1693 8.9875C73.2193 9.4375 73.461 9.79583 73.8943 10.0625C74.3443 10.3125 75.0193 10.5958 75.9193 10.9125C76.8027 11.2125 77.5193 11.5042 78.0693 11.7875C78.636 12.0542 79.111 12.4458 79.4943 12.9625C79.8943 13.4625 80.0943 14.1208 80.0943 14.9375C80.0943 15.9708 79.7193 16.8375 78.9693 17.5375C78.2193 18.2208 77.111 18.5625 75.6443 18.5625C74.6943 18.5625 73.8693 18.4042 73.1693 18.0875C72.486 17.7542 71.961 17.3208 71.5943 16.7875C71.2443 16.2542 71.0527 15.6625 71.0193 15.0125L72.7693 14.9375Z" fill="white"/>
</svg>
