<?xml version="1.0" encoding="utf-8"?>
<!-- Generator: Adobe Illustrator 27.5.0, SVG Export Plug-In . SVG Version: 6.00 Build 0)  -->
<svg version="1.1" id="Layer_1" xmlns="http://www.w3.org/2000/svg" xmlns:xlink="http://www.w3.org/1999/xlink" x="0px" y="0px"
	 viewBox="0 0 96 24" style="enable-background:new 0 0 96 24;" xml:space="preserve">
<style type="text/css">
	.st0{fill:#FFFFFF;}
	.st1{fill:none;}
	.st2{fill-rule:evenodd;clip-rule:evenodd;fill:#FFFFFF;}
	.st3{fill:#333333;}
</style>
<path class="st0" d="M0,13h37.8v-3H0V13z"/>
<path class="st1" d="M60,12c0,6.6-5.4,12-12,12s-12-5.4-12-12c0-6.6,5.4-12,12-12S60,5.4,60,12z"/>
<path class="st2" d="M48,20.5c4.7,0,8.5-3.8,8.5-8.5c0-4.7-3.8-8.5-8.5-8.5s-8.5,3.8-8.5,8.5C39.5,16.7,43.3,20.5,48,20.5z M48,24
	c6.6,0,12-5.4,12-12c0-6.6-5.4-12-12-12S36,5.4,36,12C36,18.6,41.3,24,48,24z"/>
<path class="st3" d="M46,12.5l0.4-3.4H50v1h-2.7l-0.2,1.6c0.3-0.2,0.7-0.3,1.1-0.3c0.6,0,1.1,0.2,1.5,0.6c0.4,0.4,0.5,1,0.5,1.7
	c0,0.7-0.2,1.2-0.6,1.6c-0.4,0.4-0.9,0.6-1.6,0.6c-0.6,0-1.1-0.2-1.5-0.5C46,15,45.8,14.6,45.8,14h1.1c0,0.3,0.2,0.6,0.4,0.8
	c0.2,0.2,0.4,0.3,0.7,0.3c0.3,0,0.6-0.1,0.8-0.4c0.2-0.2,0.3-0.6,0.3-1c0-0.4-0.1-0.7-0.3-1c-0.2-0.2-0.5-0.4-0.9-0.4
	c-0.2,0-0.4,0-0.5,0.1c-0.1,0.1-0.3,0.2-0.5,0.3L46,12.5z"/>
</svg>
