<?xml version="1.0" encoding="utf-8"?>
<!-- Generator: Adobe Illustrator 27.5.0, SVG Export Plug-In . SVG Version: 6.00 Build 0)  -->
<svg version="1.1" id="Layer_1" xmlns="http://www.w3.org/2000/svg" xmlns:xlink="http://www.w3.org/1999/xlink" x="0px" y="0px"
	 viewBox="0 0 96 24" style="enable-background:new 0 0 96 24;" xml:space="preserve">
<style type="text/css">
	.st0{fill:#FFFFFF;}
	.st1{fill-rule:evenodd;clip-rule:evenodd;fill:#FFFFFF;}
	.st2{fill:#333333;}
</style>
<path class="st0" d="M0,11.5h95.9v-3H0V11.5z"/>
<path class="st0" d="M60,12c0,6.6-5.4,12-12,12s-12-5.4-12-12c0-6.6,5.4-12,12-12S60,5.4,60,12z"/>
<path class="st1" d="M48,19c3.9,0,7-3.1,7-7c0-3.9-3.1-7-7-7s-7,3.1-7,7C41,15.9,44.1,19,48,19z M48,24c6.6,0,12-5.4,12-12
	c0-6.6-5.4-12-12-12S36,5.4,36,12C36,18.6,41.3,24,48,24z"/>
<path class="st2" d="M48.8,15.6h-1.2V9.8l-1.8,0.6v-1l2.8-1h0.2V15.6z"/>
</svg>
