<?xml version="1.0" encoding="utf-8"?>
<!-- Generator: Adobe Illustrator 27.5.0, SVG Export Plug-In . SVG Version: 6.00 Build 0)  -->
<svg version="1.1" id="Layer_1" xmlns="http://www.w3.org/2000/svg" xmlns:xlink="http://www.w3.org/1999/xlink" x="0px" y="0px"
	 viewBox="0 0 138 24" style="enable-background:new 0 0 138 24;" xml:space="preserve">
<style type="text/css">
	.st0{fill:#FFFFFF;}
	.st1{fill:none;}
	.st2{fill-rule:evenodd;clip-rule:evenodd;fill:#FFFFFF;}
	.st3{fill:#333333;}
</style>
<path class="st0" d="M0,13h137.9v-3H0V13z"/>
<path class="st1" d="M60,12c0,6.6-5.4,12-12,12s-12-5.4-12-12c0-6.6,5.4-12,12-12S60,5.4,60,12z"/>
<path class="st2" d="M48,20.5c4.7,0,8.5-3.8,8.5-8.5c0-4.7-3.8-8.5-8.5-8.5s-8.5,3.8-8.5,8.5C39.5,16.7,43.3,20.5,48,20.5z M48,24
	c6.6,0,12-5.4,12-12c0-6.6-5.4-12-12-12S36,5.4,36,12C36,18.6,41.3,24,48,24z"/>
<path class="st3" d="M50,13.2h1v1.1h-1v1.8h-1.4v-1.8H45l0-0.8l3.6-5.6H50V13.2z M46.4,13.2h2.2V9.7l-0.1,0.2L46.4,13.2z"/>
</svg>
